General

Format                           : Matroska
File size                        : 147 MiB
Duration                         : 2mn 45s
Overall bit rate                 : 7 487 Kbps
Encoded date                     : UTC 2009-12-14 00:43:44
Writing application              : mkvmerge v3.0.0 ('Hang up your Hang-Ups') built on Dec 12 2009 15:20:35
Writing library                  : libebml v0.7.9 + libmatroska v0.8.1

Video
ID                               : 1
Format                           : AVC
Format/Info                      : Advanced Video Codec
Format profile                   : High@L4.1
Format settings, CABAC           : Yes
Format settings, ReFrames        : 9 frames
Muxing mode                      : Container profile=Unknown@4.1
Codec ID                         : V_MPEG4/ISO/AVC
Duration                         : 2mn 45s
Bit rate                         : 6 954 Kbps
Nominal bit rate                 : 7 102 Kbps
Width                            : 1 280 pixels
Height                           : 720 pixels
Display aspect ratio             : 16:9
Frame rate                       : 29.970 fps
Resolution                       : 8 bits
Colorimetry                      : 4:2:0
Scan type                        : Progressive
Bits/(Pixel*Frame)               : 0.252
Stream size                      : 137 MiB (93%)
Writing library                  : x264 core 79 r1360M 528c100

Language                         : English

Audio
ID                               : 2
Format                           : AC-3
Format/Info                      : Audio Coding 3
Codec ID                         : A_AC3
Duration                         : 2mn 45s
Bit rate mode                    : Constant
Bit rate                         : 384 Kbps
Channel(s)                       : 6 channels
Channel positions                : Front: L C R, Surround: L R, LFE
Sampling rate                    : 48.0 KHz
Video delay                      : 32ms
Stream size                      : 7.56 MiB (5%)



with a "word the fuck up" going to: ESiR, DiRTY,  EbP, CtrlHD, DON and all the other groups on the scene banned list, cause we just pwn them so fuckin much.
